<?xml version="1.0"?>
<svg xmlns="http://www.w3.org/2000/svg" viewBox="0 0 512.0008 512" width="512px" height="512px" class=""><g><path d="m298.574219 223.214844c-2.558594 0-5.117188-.980469-7.070313-2.929688-3.902344-3.90625-3.902344-10.238281 0-14.144531l60.667969-60.664063c3.90625-3.90625 10.234375-3.902343 14.140625 0 3.90625 3.902344 3.90625 10.234376 0 14.140626l-60.664062 60.667968c-1.953126 1.949219-4.515626 2.929688-7.074219 2.929688zm0 0" data-original="#000000" class="active-path" data-old_color="#ffffff" fill="#ffffff"/><path d="m149.535156 372.253906c-2.558594 0-5.117187-.976562-7.070312-2.929687-3.90625-3.90625-3.90625-10.238281 0-14.140625l50.164062-50.167969c3.90625-3.902344 10.238282-3.902344 14.140625 0 3.90625 3.90625 3.90625 10.238281 0 14.144531l-50.164062 50.164063c-1.953125 1.953125-4.511719 2.929687-7.070313 2.929687zm0 0" data-original="#000000" class="active-path" data-old_color="#ffffff" fill="#ffffff"/><path d="m215.144531 224.945312c-2.558593 0-5.117187-.976562-7.070312-2.925781l-59.488281-59.488281c-3.90625-3.90625-3.90625-10.238281 0-14.144531 3.902343-3.902344 10.234374-3.902344 14.140624 0l59.488282 59.488281c3.90625 3.90625 3.90625 10.238281 0 14.144531-1.953125 1.953125-4.511719 2.925781-7.070313 2.925781zm0 0" data-original="#000000" class="active-path" data-old_color="#ffffff" fill="#ffffff"/><path d="m359.242188 369.046875c-2.558594 0-5.117188-.976563-7.070313-2.929687l-60.667969-60.667969c-3.902344-3.90625-3.902344-10.238281 0-14.140625 3.90625-3.90625 10.238282-3.90625 14.144532 0l60.664062 60.664062c3.90625 3.90625 3.90625 10.238282 0 14.144532-1.953125 1.953124-4.511719 2.929687-7.070312 2.929687zm0 0" data-original="#000000" class="active-path" data-old_color="#ffffff" fill="#ffffff"/><path d="m255.992188 196.40625c-5.523438 0-10-4.480469-10-10v-45.675781c0-5.523438 4.476562-10 10-10 5.523437 0 10 4.476562 10 10v45.675781c0 5.523438-4.476563 10-10 10zm0 0" data-original="#000000" class="active-path" data-old_color="#ffffff" fill="#ffffff"/><path d="m255.988281 108.355469c-2.628906 0-5.207031-1.070313-7.066406-2.929688-1.863281-1.859375-2.933594-4.4375-2.933594-7.070312 0-2.628907 1.070313-5.207031 2.933594-7.066407 1.859375-1.859374 4.4375-2.933593 7.066406-2.933593 2.632813 0 5.210938 1.070312 7.070313 2.933593 1.871094 1.859376 2.929687 4.4375 2.929687 7.066407 0 2.632812-1.058593 5.210937-2.929687 7.070312-1.859375 1.859375-4.4375 2.929688-7.070313 2.929688zm0 0" data-original="#000000" class="active-path" data-old_color="#ffffff" fill="#ffffff"/><path d="m402.890625 265.796875h-77.507813c-5.523437 0-10-4.480469-10-10 0-5.523437 4.476563-10 10-10h77.507813c5.523437 0 10 4.476563 10 10 0 5.519531-4.476563 10-10 10zm0 0" data-original="#000000" class="active-path" data-old_color="#ffffff" fill="#ffffff"/><path d="m255.992188 408.347656c-5.523438 0-10-4.476562-10-10v-86.257812c0-5.523438 4.476562-10 10-10 5.523437 0 10 4.476562 10 10v86.257812c0 5.523438-4.476563 10-10 10zm0 0" data-original="#000000" class="active-path" data-old_color="#ffffff" fill="#ffffff"/><path d="m186.601562 265.796875h-78.179687c-5.523437 0-10-4.480469-10-10 0-5.523437 4.476563-10 10-10h78.179687c5.523438 0 10 4.476563 10 10 0 5.519531-4.476562 10-10 10zm0 0" data-original="#000000" class="active-path" data-old_color="#ffffff" fill="#ffffff"/><path d="m255.988281 265.792969c-2.628906 0-5.207031-1.0625-7.066406-2.929688-1.863281-1.863281-2.933594-4.429687-2.933594-7.070312 0-2.628907 1.070313-5.210938 2.933594-7.070313 1.859375-1.859375 4.4375-2.929687 7.066406-2.929687 2.632813 0 5.210938 1.070312 7.070313 2.929687 1.871094 1.859375 2.929687 4.441406 2.929687 7.070313 0 2.640625-1.058593 5.207031-2.929687 7.070312-1.859375 1.867188-4.429688 2.929688-7.070313 2.929688zm0 0" data-original="#000000" class="active-path" data-old_color="#ffffff" fill="#ffffff"/><path d="m417.152344 511.957031c-1.550782 0-3.105469-.359375-4.539063-1.09375-3.390625-1.726562-5.507812-5.230469-5.457031-9.035156l.46875-36.632813-29.910156-21.148437c-3.109375-2.199219-4.699219-5.972656-4.105469-9.730469.597656-3.761718 3.273437-6.855468 6.910156-7.984375l34.980469-10.875 10.875-34.980469c1.132812-3.636718 4.226562-6.3125 7.984375-6.910156 3.769531-.59375 7.535156.996094 9.730469 4.105469l21.152344 29.910156 36.632812-.46875h.125c3.757812 0 7.203125 2.105469 8.910156 5.457031 1.730469 3.394532 1.382813 7.46875-.894531 10.523438l-21.910156 29.359375 11.765625 34.691406c1.222656 3.605469.289062 7.589844-2.402344 10.28125-2.691406 2.691407-6.675781 3.621094-10.28125 2.398438l-34.691406-11.765625-29.363282 21.910156c-1.757812 1.316406-3.863281 1.988281-5.980468 1.988281zm-11.347656-72.542969 17.660156 12.488282c2.6875 1.902344 4.265625 5.003906 4.222656 8.292968l-.273438 21.628907 17.332032-12.9375c2.640625-1.96875 6.074218-2.511719 9.191406-1.457031l20.484375 6.945312-6.945313-20.480469c-1.058593-3.117187-.511718-6.554687 1.457032-9.191406l12.933594-17.335937-21.625.277343c-.042969 0-.085938 0-.128907 0-3.242187 0-6.289062-1.574219-8.164062-4.226562l-12.488281-17.660157-6.417969 20.65625c-.980469 3.140626-3.441407 5.601563-6.582031 6.578126zm0 0" data-original="#000000" class="active-path" data-old_color="#ffffff" fill="#ffffff"/><path d="m78.652344 121.914062c-2.117188 0-4.222656-.671874-5.984375-1.984374l-22.949219-17.128907-27.121094 9.195313c-3.601562 1.222656-7.589844.292968-10.28125-2.398438s-3.621094-6.675781-2.398437-10.28125l9.195312-27.121094-17.128906-22.953124c-2.273437-3.050782-2.621094-7.128907-.894531-10.519532 1.707031-3.355468 5.152344-5.460937 8.910156-5.460937.042969 0 .085938 0 .128906.003906l28.632813.363281 16.535156-23.378906c2.199219-3.109375 5.964844-4.703125 9.730469-4.105469 3.757812.597657 6.855468 3.273438 7.984375 6.910157l8.5 27.347656 27.347656 8.5c3.632813 1.128906 6.3125 4.226562 6.90625 7.984375.597656 3.757812-.992187 7.53125-4.101563 9.726562l-23.382812 16.539063.367188 28.632812c.050781 3.808594-2.066407 7.308594-5.457032 9.039063-1.433594.730469-2.992187 1.089843-4.539062 1.089843zm-27.167969-40.273437c2.128906 0 4.230469.679687 5.984375 1.988281l10.925781 8.152344-.175781-13.632812c-.042969-3.289063 1.539062-6.390626 4.226562-8.292969l11.128907-7.871094-13.019531-4.046875c-3.140626-.976562-5.601563-3.4375-6.578126-6.578125l-4.046874-13.019531-7.875 11.128906c-1.898438 2.6875-4.996094 4.261719-8.289063 4.226562l-13.632813-.175781 8.152344 10.929688c1.96875 2.636719 2.515625 6.074219 1.457032 9.191406l-4.378907 12.910156 12.910157-4.378906c1.050781-.355469 2.132812-.53125 3.210937-.53125zm0 0" data-original="#000000" class="active-path" data-old_color="#ffffff" fill="#ffffff"/><path d="m443.777344 130.144531c-2.898438 0-5.902344-.0625-9.015625-.183593-21.277344-.828126-39.617188-4.285157-40.386719-4.429688-4.03125-.769531-7.183594-3.921875-7.949219-7.953125-.148437-.769531-3.605469-19.109375-4.433593-40.386719-1.199219-30.898437 3.550781-51.253906 14.53125-62.234375 18.984374-18.984375 48.816406-20.039062 66.5-2.351562 6.515624 6.515625 10.707031 15.011719 12.109374 24.214843 9.207032 1.402344 17.699219 5.59375 24.21875 12.109376 17.683594 17.6875 16.628907 47.515624-2.355468 66.5-9.871094 9.875-27.332032 14.714843-53.21875 14.714843zm-38.882813-23.089843c27.929688 4.378906 66.902344 5.292968 77.960938-5.765626 11.1875-11.1875 12.242187-28.328124 2.355469-38.21875-4.855469-4.851562-11.578126-7.230468-18.929688-6.699218-2.898438.210937-5.738281-.851563-7.792969-2.902344-2.050781-2.054688-3.113281-4.898438-2.902343-7.796875.535156-7.347656-1.847657-14.070313-6.703126-18.925781-9.886718-9.886719-27.03125-8.832032-38.214843 2.351562-11.085938 11.085938-10.160157 50.039063-5.773438 77.957032zm0 0" data-original="#000000" class="active-path" data-old_color="#ffffff" fill="#ffffff"/><path d="m80.003906 511.957031c-11.894531 0-22.851562-4.441406-31.042968-12.636719-6.515626-6.519531-10.707032-15.011718-12.109376-24.21875-9.207031-1.398437-17.699218-5.589843-24.21875-12.105468-8.6875-8.6875-13.15625-20.484375-12.585937-33.210938.558594-12.390625 5.863281-24.214844 14.941406-33.289062 10.980469-10.980469 31.332031-15.734375 62.234375-14.53125 21.277344.828125 39.617188 4.28125 40.386719 4.429687 4.03125.769531 7.183594 3.921875 7.953125 7.953125.144531.769532 3.601562 19.109375 4.429688 40.386719 1.203124 30.898437-3.550782 51.253906-14.53125 62.234375-9.078126 9.078125-20.898438 14.382812-33.289063 14.9375-.722656.03125-1.449219.050781-2.167969.050781zm-33.578125-56.425781c2.640625 0 5.1875 1.046875 7.070313 2.925781 2.054687 2.054688 3.113281 4.898438 2.902344 7.796875-.53125 7.347656 1.847656 14.070313 6.703124 18.925782 4.671876 4.667968 11.117188 7.066406 18.171876 6.746093 7.390624-.328125 14.507812-3.5625 20.042968-9.101562 11.0625-11.058594 10.144532-50.023438 5.769532-77.953125-27.929688-4.378906-66.898438-5.292969-77.957032 5.765625-5.539062 5.539062-8.769531 12.65625-9.101562 20.042969-.316406 7.050781 2.078125 13.503906 6.75 18.171874 4.851562 4.855469 11.578125 7.230469 18.925781 6.707032.242187-.019532.484375-.027344.722656-.027344zm0 0" data-original="#000000" class="active-path" data-old_color="#ffffff" fill="#ffffff"/><path d="m64 223.214844c-16.542969 0-30-13.460938-30-30 0-16.542969 13.457031-30 30-30 16.539062 0 29.996094 13.457031 29.996094 30 0 16.539062-13.457032 30-29.996094 30zm0-40c-5.515625 0-10 4.484375-10 10 0 5.511718 4.484375 10 10 10 5.511719 0 10-4.488282 10-10 0-5.515625-4.488281-10-10-10zm0 0" data-original="#000000" class="active-path" data-old_color="#ffffff" fill="#ffffff"/><path d="m255.992188 511.890625c-16.539063 0-30-13.457031-30-29.996094 0-16.542969 13.460937-30 30-30 16.542968 0 30 13.457031 30 30 0 16.539063-13.457032 29.996094-30 29.996094zm0-39.996094c-5.511719 0-10 4.484375-10 10 0 5.511719 4.488281 10 10 10 5.515624 0 10-4.488281 10-10 0-5.515625-4.484376-10-10-10zm0 0" data-original="#000000" class="active-path" data-old_color="#ffffff" fill="#ffffff"/></g> </svg>
